<svg xmlns="http://www.w3.org/2000/svg" xmlns:xlink="http://www.w3.org/1999/xlink" width="93.442" height="95.833" viewBox="0 0 93.442 95.833"><defs><clipPath id="a"><rect width="93.442" height="95.833" fill="#464646"/></clipPath></defs><g clip-path="url(#a)"><path d="M72.2,0V.386c-4.057,1.161-6.379,3-9.956,11.309L39.533,64.376l-10.05,6.957.291-2.027L4.738,7.445A21.919,21.919,0,0,0,0,0H27.452V.386C20.688.968,16.819,3.093,20.2,11.6L39.34,59.638,60.122,11.6C63.7,3.286,59.831,1.547,54.42.386V0Z" fill="#464646"/><path d="M114.761,94.389c0,13.533-13.435,22.037-31.6,22.037H50.484v-.484c3.967-1.448,7.351-3.478,7.351-6.957V54.274c0-3.478-3.385-4.541-7.351-5.025v-.484H79.29c15.662,0,29.1,2.416,29.1,13.435,0,7.154-5.895,13.147-14.6,15.08,12.372,1.255,20.974,6.477,20.974,17.11M71.073,50.312V76.992H85.767c5.218,0,9.665-1.354,9.665-10.247,0-9.185-4.738-16.433-16.622-16.433Zm30.545,47.848c0-9.472-2.322-19.526-20.487-19.526H71.073v34.023a41.542,41.542,0,0,0,13.049,2.224c12.474,0,17.5-2.416,17.5-16.721" transform="translate(-21.319 -20.593)" fill="#464646"/></g></svg>